<?xml version="1.0" encoding="UTF-8" standalone="no"?>
<svg
   clip-rule="evenodd"
   fill-rule="evenodd"
   stroke-linejoin="round"
   stroke-miterlimit="2"
   viewBox="0 0 150 150"
   version="1.1"
   id="svg949"
   width="150"
   height="150"
   xmlns="http://www.w3.org/2000/svg"
   xmlns:svg="http://www.w3.org/2000/svg">
  <defs
     id="defs953" />
  <a
     id="a2393"
     transform="translate(0.11796781,0.21924724)">
    <path
       style="opacity:1;fill:#4d4d4d;stroke:none;stroke-width:0.867596"
       d="M 0.13054884,74.977847 0.37904431,0.17090228 75.203827,-0.02417249 150.02861,-0.21924724 V 74.782772 149.7848 H 74.955322 -0.11796781 Z"
       id="path2390" />
    <g
       id="g2611"
       style="fill:#ffffff"
       transform="matrix(0.43736138,0,0,0.43736138,-88.251226,19.58447)">
      <path
         d="m 502.734,196.775 c 2.886,-3.078 7.164,-4.711 11.353,-4.711 12.754,0 15.913,8.656 15.913,19.717 v 25.583 c 0,0.677 -0.465,1.151 -1.116,1.151 h -8.002 c -0.651,0 -1.212,-0.474 -1.212,-1.151 v -24.521 c 0,-6.639 -0.837,-11.158 -8.002,-11.158 -9.024,0 -9.024,8.65 -9.024,16.061 v 19.618 c 0,0.677 -0.561,1.151 -1.209,1.151 h -8.005 c -0.654,0 -1.209,-0.474 -1.209,-1.151 v -42.898 c 0,-0.481 0.555,-1.058 1.209,-1.058 h 8.005 c 0.648,0 1.209,0.577 1.209,1.058 z"
         id="path931"
         style="fill:#ffffff" />
      <path
         d="m 486.541,214.568 c 0,13.563 -10.237,23.947 -23.36,23.947 -13.027,0 -23.36,-10.384 -23.36,-23.947 0,-13.466 10.336,-23.95 23.36,-23.95 13.12,0 23.36,10.484 23.36,23.95 m -36.297,0 c 0,7.498 5.769,13.848 12.934,13.848 7.353,0 13.123,-6.35 13.123,-13.848 0,-7.504 -5.77,-13.755 -13.123,-13.755 -7.165,0 -12.934,6.254 -12.934,13.755"
         id="path933"
         style="fill:#ffffff" />
      <path
         d="m 414.312,203.218 h -7.444 c -0.651,0 -1.209,-0.288 -1.209,-0.965 v -7.787 c 0,-0.481 0.558,-1.058 1.209,-1.058 h 1.671 c 5.773,0 5.773,-4.333 5.773,-6.639 v -4.903 c 0,-0.674 0.561,-1.059 1.215,-1.059 h 7.995 c 0.655,0 1.123,0.385 1.123,1.059 v 11.545 h 9.772 c 0.648,0 1.209,0.577 1.209,1.058 v 7.787 c 0,0.677 -0.561,0.965 -1.209,0.965 h -9.772 v 14.426 c 0,3.653 -0.279,9.714 3.909,10.679 2.325,0.289 3.724,-0.288 5.119,-0.869 0,0 0.468,-0.189 0.744,-0.189 0.648,0 1.209,0.481 1.209,1.058 v 8.175 c 0,0.289 -0.372,0.866 -0.837,0.959 h 0.093 c -1.953,0.869 -4.564,1.058 -6.61,1.058 -11.17,0 -13.964,-8.075 -13.964,-17.982 v -17.318 z"
         id="path935"
         style="fill:#ffffff" />
      <path
         d="m 371.231,218.221 c 0.468,6.35 4.84,10.772 11.263,10.772 5.587,0 8.095,-3.075 10.985,-7.886 0.372,-0.481 0.837,-0.67 1.488,-0.288 l 6.792,3.941 c 0.465,0.388 0.841,0.869 0.558,1.446 v -0.099 c -4.092,7.893 -11.353,12.408 -19.916,12.408 -13.306,0 -21.5,-10.384 -21.5,-23.658 0,-13.755 7.261,-24.236 21.314,-24.236 14.054,0 20.753,11.828 20.753,25.195 v 1.353 c 0,0.67 -0.558,1.052 -1.209,1.052 z m 21.132,-9.038 c -1.306,-4.903 -4.846,-9.136 -10.148,-9.136 -4.932,0 -8.931,4.425 -10.237,9.136 z"
         id="path937"
         style="fill:#ffffff" />
      <path
         d="m 354.224,237.364 c 0,0.677 -0.558,1.151 -1.116,1.151 h -8.005 c -0.651,0 -1.212,-0.474 -1.212,-1.151 v -73.387 c 0,-0.481 0.561,-1.059 1.212,-1.059 h 8.005 c 0.558,0 1.116,0.578 1.116,1.059 z"
         id="path939"
         style="fill:#ffffff" />
      <path
         d="m 293.216,162.53 c 0,-0.478 0.558,-1.055 1.209,-1.055 h 8.098 c 0.651,0 1.206,0.577 1.206,1.055 v 34.245 c 3.448,-3.848 7.912,-6.157 13.309,-6.157 12.752,0 20.66,11.16 20.66,23.661 0,12.893 -7.447,24.243 -21.035,24.243 -4.932,0 -9.682,-2.505 -13.03,-6.065 v 3.464 c 0,0.67 -0.555,1.151 -1.206,1.151 h -8.005 c -0.651,0 -1.209,-0.481 -1.209,-1.151 V 162.53 Z m 34.248,51.945 c 0,-7.697 -4.47,-14.236 -12.379,-14.236 -7.443,0 -11.911,6.927 -11.911,14.236 0,7.505 4.278,14.518 11.911,14.518 8.002,0.004 12.379,-6.632 12.379,-14.518"
         id="path941"
         style="fill:#ffffff" />
      <path
         d="m 239.331,220.822 -7.447,16.93 c -0.186,0.289 -0.837,0.77 -1.116,0.77 h -9.124 c -0.927,0 -1.392,-0.77 -1.116,-1.636 l 32.481,-73.198 c 0.558,-0.869 1.767,-0.869 2.232,0 10.52,23.758 21.966,49.443 32.482,73.201 0.279,0.866 -0.19,1.636 -1.116,1.636 h -9.128 c -0.372,0 -0.93,-0.481 -1.116,-0.77 -2.328,-5.487 -5.025,-11.35 -7.443,-16.93 h -29.589 z m 14.794,-34.531 -10.512,24.332 h 21.032 z"
         id="path943"
         style="fill:#ffffff" />
    </g>
    <g
       fill-rule="nonzero"
       id="g947"
       transform="matrix(0.26602687,0,0,0.26602687,1.2819045,22.432958)"
       style="fill:#ffffff">
      <path
         d="m 59.491429,246.96355 c 0,2.15787 -1.819705,3.70704 -3.636184,3.70704 H 29.876948 c -2.119244,0 -3.935723,-1.54917 -3.935723,-3.70704 V 9.851173 c 0,-1.549166 1.816479,-3.41074 3.935723,-3.41074 h 25.987959 c 1.816478,0 3.636183,1.861574 3.636183,3.41074 V 246.96355 Z m 67.995771,0 c 0,2.15787 -1.81971,3.70704 -3.6362,3.70704 H 97.872699 c -2.116002,0 -3.926045,-1.54917 -3.926045,-3.70704 V 9.851173 c 0,-1.549166 1.810043,-3.41074 3.926045,-3.41074 h 25.987961 c 1.81649,0 3.6362,1.861574 3.6362,3.41074 V 246.96355 Z m 67.99575,0 c 0,2.15787 -1.81005,3.70704 -3.63619,3.70704 H 165.8588 c -2.11922,0 -3.92606,-1.54917 -3.92606,-3.70704 V 9.851173 c 0,-1.549166 1.80684,-3.41074 3.92606,-3.41074 h 25.98796 c 1.82614,0 3.63619,1.861574 3.63619,3.41074 z m 68.29529,0 c 0,2.15787 -1.81971,3.70704 -3.62653,3.70704 h -25.98795 c -2.11602,0 -3.93573,-1.54917 -3.93573,-3.70704 V 9.851173 c 0,-1.549166 1.81971,-3.41074 3.93573,-3.41074 h 25.98795 c 1.80682,0 3.62653,1.861574 3.62653,3.41074 z M 531.22652,6.121582 c 2.10634,0 3.62652,1.880898 3.62652,3.729591 v 26.728723 c 0,2.180424 -1.50729,4.038778 -3.62652,4.038778 H 300.64255 c -1.50729,0 -3.31734,-1.858354 -3.31734,-4.038778 V 9.851173 c 0,-1.861575 1.81971,-3.729591 3.31734,-3.729591 z m 0,70.23739 c 2.10634,0 3.62652,1.868015 3.62652,3.729589 v 26.719059 c 0,2.17076 -1.50729,4.03878 -3.62652,4.03878 H 300.64255 c -1.50729,0 -3.31734,-1.86802 -3.31734,-4.03878 V 80.088561 c 0,-1.871236 1.81971,-3.729589 3.31734,-3.729589 z m 0,69.915308 c 2.10634,0 3.62652,1.86158 3.62652,3.72959 v 26.71262 c 0,2.19975 -1.50729,4.05811 -3.62652,4.05811 H 300.64255 c -1.50729,0 -3.31734,-1.85836 -3.31734,-4.05811 v -26.71262 c 0,-1.8809 1.81971,-3.72959 3.31734,-3.72959 z m 0,69.89921 c 2.10634,0 3.62652,1.87768 3.62652,3.72637 v 26.73195 c 0,2.18043 -1.50729,4.03878 -3.62652,4.03878 H 300.64255 c -1.50729,0 -3.31734,-1.85835 -3.31734,-4.03878 v -26.73195 c 0,-1.85835 1.81971,-3.72637 3.31734,-3.72637 z"
         id="path945"
         style="fill:#ffffff;stroke-width:3.22072" />
    </g>
  </a>
</svg>
