<?xml version="1.0" encoding="UTF-8" standalone="no"?>
<!-- Uploaded to: SVG Repo, www.svgrepo.com, Transformed by: SVG Repo Mixer Tools -->

<svg
   fill="#ffffff"
   width="150"
   height="150"
   viewBox="0 0 6 6"
   version="1.1"
   id="svg2799"
   xmlns="http://www.w3.org/2000/svg"
   xmlns:svg="http://www.w3.org/2000/svg">
  <defs
     id="defs2803" />
  <g
     id="SVGRepo_iconCarrier">
    <title
       id="title2794">github</title>
    <path
       d="m 2.9965225,0.08342733 c -1.6526849,0 -2.99247326,1.33978837 -2.99247326,2.99247327 0,1.3140462 0.84709583,2.4305364 2.02504796,2.8326325 l 0.021153,0.00619 c 0.1496637,0.028137 0.2045403,-0.064256 0.2045403,-0.1438766 0,-0.07104 -0.0024,-0.2594168 -0.00379,-0.5086566 C 1.4186694,5.4427801 1.2430641,4.8606886 1.2430641,4.8606886 1.1855933,4.6761035 1.0678579,4.5244444 0.91320559,4.4248683 l -0.00319,-0.00179 c -0.27099367,-0.1855889 0.02095,-0.1817974 0.02095,-0.1817974 0.19695731,0.027738 0.36198641,0.143278 0.45677331,0.3053137 l 0.0016,0.003 c 0.1105515,0.1985536 0.3192823,0.3306567 0.5589435,0.3306567 0.1149417,0 0.2226995,-0.030332 0.3156904,-0.083612 l -0.00319,0.0016 C 2.2751441,4.6403838 2.3447876,4.5010969 2.4501507,4.3981284 l 1.995e-4,-1.996e-4 C 1.785844,4.323097 1.0872144,4.0656757 1.0872144,2.9192527 c 0,-0.00539 -1.995e-4,-0.011574 -1.995e-4,-0.01776 0,-0.3035177 0.1171367,-0.5796969 0.3087061,-0.7858335 l -5.987e-4,7.989e-4 C 1.3546133,2.0083005 1.3310663,1.8833812 1.3310663,1.7530742 c 0,-0.1550515 0.033126,-0.30252 0.092791,-0.4354213 l -0.00279,0.00678 c 0,0 0.2506366,-0.08022 0.8229502,0.3067106 0.2242958,-0.064054 0.4819167,-0.1009713 0.7481183,-0.1009713 0.2662016,0 0.5238225,0.036917 0.7680735,0.1057623 l -0.019955,-0.00479 C 4.3087764,1.2442135 4.559413,1.3244332 4.559413,1.3244332 c 0.056872,0.128112 0.089998,0.2773765 0.089998,0.4344234 0,0.1281121 -0.02195,0.2510357 -0.06246,0.3651791 l 0.0024,-0.00758 c 0.1901725,0.2059371 0.3069101,0.4821163 0.3069101,0.785634 0,0.00619 0,0.012173 -1.996e-4,0.018159 v -0.001 c 0,1.1496158 -0.6994277,1.402647 -1.3653308,1.4762815 0.1261165,0.1291098 0.2039415,0.3057128 0.2039415,0.5006745 0,0.018558 -7.992e-4,0.037117 -0.0022,0.055475 l 1.996e-4,-0.0024 c 0,0.4004998 -0.00379,0.7221767 -0.00379,0.8193582 0,0.078623 0.052283,0.1720134 0.2057375,0.1420807 1.2028975,-0.4048835 2.0537848,-1.5223716 2.0537848,-2.8388123 0,-1.6506894 -1.3381919,-2.9886818 -2.9886818,-2.9886818 -0.0012,0 -0.00259,0 -0.00379,0 h 1.995e-4 z"
       id="path2796"
       style="stroke-width:0.199552" />
  </g>
</svg>
