<?xml version="1.0" encoding="UTF-8" standalone="no"?>
<!-- Uploaded to: SVG Repo, www.svgrepo.com, Generator: SVG Repo Mixer Tools -->

<svg
   fill="#000000"
   width="150"
   height="150"
   viewBox="0 0 6 6"
   version="1.1"
   id="svg3465"
   xmlns="http://www.w3.org/2000/svg"
   xmlns:svg="http://www.w3.org/2000/svg"
   xmlns:rdf="http://www.w3.org/1999/02/22-rdf-syntax-ns#"
   xmlns:cc="http://creativecommons.org/ns#"
   xmlns:dc="http://purl.org/dc/elements/1.1/">
  <defs
     id="defs3469" />
  <title
     id="title3461">inkscape</title>
  <g
     id="g3827"
     transform="matrix(0.19936952,0,0,0.19936952,-0.19077901,-0.17991206)">
    <path
       d="m 25.431,25.209 c -1.263,1.135 0.142,2.284 1.388,1.552 0.277,-0.281 -0.008,-1.27 -1.387,-1.552 z M 7.296,27.041 c 0.98,0.849 2.496,-0.211 2.949,-1.395 -0.95,-1.262 -4.507,0.046 -2.949,1.395 z m 18.655,-2.987 c 0,0.562 4.141,0.931 4.141,-0.132 -0.397,-0.733 -1.16,-1.222 -2.038,-1.222 -0.929,0 -1.731,0.549 -2.097,1.34 z M 13.233,2.216 2.161,13.545 c -3.74,4.632 2.547,4.094 5.241,5.427 0.967,0.988 -3.705,1.718 -2.738,2.707 0.966,0.988 5.846,1.904 6.814,2.892 0.966,0.988 -1.979,2.037 -1.012,3.024 0.966,0.99 3.203,0.052 3.621,2.334 0.297,1.63 4.029,0.7 5.853,-0.635 0.967,-0.988 -1.849,-0.896 -0.882,-1.884 2.403,-2.458 4.642,-0.892 5.465,-3.357 0.406,-1.217 -3.539,-1.876 -2.571,-2.864 2.782,-1.625 12.395,-2.682 7.833,-7.243 L 18.311,2.216 C 17.652,1.587 16.757,1.2 15.772,1.2 c -0.985,0 -1.88,0.387 -2.54,1.017 z m 4.408,0.796 4.38,4.449 c 0.207,0.229 0.333,0.533 0.333,0.868 0,0.226 -0.058,0.438 -0.159,0.623 L 22.198,8.945 20.024,7.206 19.597,9.782 17.779,8.823 14.87,10.66 13.907,6.786 12.344,9.49 H 9.953 C 8.978,9.49 8.865,8.253 9.749,7.368 11.295,5.7 13.069,3.999 14.034,3.013 14.5,2.56 15.136,2.281 15.838,2.281 c 0.702,0 1.338,0.279 1.804,0.733 L 17.641,3.013 Z m -7.057,16.576 c 0.296,0.184 4.771,1.093 5.865,1.275 0.379,0.08 0.11,0.47 -0.412,0.734 -1.178,0.314 -6.894,-2.008 -5.452,-2.008 z"
       id="path3463" />
    <path
       style="fill:#ffffff;stroke-width:0.0627536"
       d="M 14.83741,10.362153 C 14.803161,10.232589 14.588036,9.3764364 14.359356,8.4595912 14.130676,7.542746 13.924967,6.7926 13.902226,6.7926 c -0.02274,0 -0.389958,0.6044168 -0.816038,1.3431488 L 12.311498,9.4788972 10.989734,9.459994 C 9.761646,9.4424304 9.6555132,9.4318356 9.4922128,9.3105036 9.0937012,9.0144104 9.0929804,8.3522688 9.4905128,7.748886 9.807654,7.2675232 14.21377,2.8550726 14.571987,2.6601065 c 0.760928,-0.4141491 1.563502,-0.4476221 2.324315,-0.096941 0.401929,0.1852612 0.588352,0.3577416 2.795235,2.58619 1.384533,1.398062 2.417122,2.4906732 2.491343,2.6361588 0.162108,0.3177564 0.164074,1.06356 0.0028,1.06356 -0.02591,0 -0.51918,-0.3774568 -1.096166,-0.8387928 -0.576985,-0.4613364 -1.058582,-0.8292744 -1.070217,-0.8176404 -0.01163,0.011634 -0.104202,0.5222944 -0.205707,1.1348008 -0.101506,0.6125064 -0.199041,1.1773172 -0.216746,1.2551348 -0.03107,0.1365712 -0.06331,0.125136 -0.92815,-0.3291756 L 17.772738,8.78274 16.411198,9.6446592 c -0.748846,0.4740558 -1.395284,0.8824268 -1.436528,0.9074918 -0.05026,0.03054 -0.09553,-0.03212 -0.13726,-0.189998 z"
       id="path3740" />
    <path
       style="fill:#ffffff;stroke-width:0.00554668"
       d="M 15.656873,21.621086 C 15.041392,21.594063 13.855021,21.278742 12.583334,20.804181 11.771078,20.501069 11.036016,20.17058 10.65216,19.935913 10.4722,19.825896 10.368371,19.73478 10.357612,19.677428 c -0.0094,-0.0503 0.05709,-0.08113 0.176696,-0.08187 0.057,-3.6e-4 0.06304,7.08e-4 0.1019,0.01786 0.156898,0.06924 0.845942,0.239393 1.899434,0.469046 1.252654,0.27307 2.932113,0.610742 3.781244,0.760258 0.08732,0.01538 0.171376,0.03275 0.186781,0.0386 0.0452,0.01718 0.08449,0.04639 0.101656,0.07559 0.01353,0.02301 0.01546,0.03187 0.01533,0.07039 -1.6e-4,0.05196 -0.0104,0.07943 -0.05647,0.151474 -0.0576,0.0901 -0.207098,0.224082 -0.350811,0.314408 -0.112225,0.07053 -0.178361,0.102982 -0.228772,0.112241 -0.08726,0.01603 -0.198404,0.02134 -0.327734,0.01566 z"
       id="path3744" />
  </g>
  <metadata
     id="metadata3746">
    <rdf:RDF>
      <cc:Work
         rdf:about="">
        <dc:title>inkscape</dc:title>
      </cc:Work>
    </rdf:RDF>
  </metadata>
</svg>
