<?xml version="1.0" encoding="UTF-8" standalone="no"?>
<!-- Uploaded to: SVG Repo, www.svgrepo.com, Generator: SVG Repo Mixer Tools -->

<svg
   width="150"
   height="150"
   viewBox="0 0 6 6"
   version="1.1"
   id="svg21332"
   xmlns="http://www.w3.org/2000/svg"
   xmlns:svg="http://www.w3.org/2000/svg"
   xmlns:rdf="http://www.w3.org/1999/02/22-rdf-syntax-ns#"
   xmlns:cc="http://creativecommons.org/ns#"
   xmlns:dc="http://purl.org/dc/elements/1.1/">
  <defs
     id="defs21336" />
  <title
     id="title21328">file_type_sass</title>
  <path
     d="M 5.1644396,3.3103143 A 1.2414445,1.2414445 0 0 0 4.6214146,3.4361711 1.1440552,1.1440552 0 0 1 4.4998387,3.1549197 0.75556881,0.75556881 0 0 1 4.4889224,2.9194734 2.0999676,2.0999676 0 0 1 4.5599845,2.6643351 c -0.00107,-0.010916 -0.013057,-0.0625 -0.1335623,-0.064213 -0.1205057,-0.00171 -0.2243162,0.022903 -0.2354464,0.054795 a 1.3208541,1.3208541 0 0 0 -0.0503,0.1785113 4.2136338,4.2136338 0 0 1 -0.3666542,0.7050549 0.6819383,0.6819383 0 0 1 -0.094179,-0.4422112 2.0999676,2.0999676 0 0 1 0.071062,-0.2551382 c -0.00107,-0.010916 -0.013057,-0.0625 -0.1335624,-0.064213 -0.1205056,-0.00171 -0.2243161,0.022903 -0.2354463,0.054795 -0.01113,0.031892 -0.025257,0.1070211 -0.0503,0.1785112 -0.025043,0.07149 -0.3174246,0.7247467 -0.3940516,0.8931978 -0.039384,0.085617 -0.073417,0.1553947 -0.097389,0.2024838 v 0 a 0.04987182,0.04987182 0 0 1 -0.00428,0.00878 c -0.021405,0.040453 -0.032749,0.062501 -0.032749,0.062501 v 0.00107 c -0.016481,0.029537 -0.034033,0.056936 -0.042809,0.056936 A 0.36622613,0.36622613 0 0 1 2.7624573,4.049193 C 2.8052713,3.8225209 2.910152,3.4702075 2.9090818,3.4580071 c 0,-0.00664 0.019691,-0.067851 -0.067851,-0.09953 A 0.10873341,0.10873341 0 0 0 2.717515,3.3798821 c -0.0077,0 -0.013057,0.018622 -0.013057,0.018622 0,0 0.095249,-0.396192 -0.1817217,-0.396192 A 0.8251325,0.8251325 0 0 0 1.992977,3.3625409 C 1.918491,3.4029939 1.7598851,3.4894679 1.5901498,3.5825762 1.5259372,3.6187493 1.458728,3.6549223 1.3964416,3.6895974 1.3921576,3.6853134 1.387664,3.6797512 1.383385,3.6754713 1.0462686,3.3163075 0.4266165,3.0628816 0.45337177,2.582357 0.46321772,2.4072705 0.52336357,1.947508 1.6432321,1.389072 2.5648977,0.93487452 3.29842,1.0607313 3.425347,1.3398423 3.6070688,1.7383887 3.0323656,2.4783325 2.0800922,2.5855677 A 0.71725526,0.71725526 0 0 1 1.4779916,2.4333837 c -0.0503,-0.054795 -0.058005,-0.058005 -0.076627,-0.04709 -0.030608,0.016481 -0.010916,0.065712 0,0.094178 A 0.56207469,0.56207469 0 0 0 1.7451162,2.7508082 1.8300604,1.8300604 0 0 0 2.8617741,2.6401484 C 3.4396879,2.4169024 3.8891764,1.7961802 3.7573265,1.2762718 3.6248343,0.74865785 2.7491879,0.57464157 1.9204167,0.86959166 A 4.173822,4.173822 0 0 0 0.5088087,1.6793131 C 0.05225678,2.1063272 -0.01987543,2.4772623 0.00966239,2.6328709 0.11668346,3.1846716 0.87674716,3.5436203 1.1809011,3.8101028 1.1654898,3.8188804 1.1513637,3.8265835 1.1393765,3.8330055 0.98719295,3.9085621 0.40713868,4.2118599 0.26180405,4.532495 0.09763371,4.8963667 0.28813127,5.1564279 0.41398803,5.1915309 A 0.93622037,0.93622037 0 0 0 1.4221266,4.7831385 1.0113491,1.0113491 0 0 0 1.5126666,3.851413 0.02290251,0.02290251 0 0 0 1.5083866,3.844773 L 1.6276036,3.77478 C 1.7053016,3.7287619 1.781928,3.6861659 1.8476389,3.6510635 a 1.4426441,1.4426441 0 0 0 -0.077697,0.3985464 0.8317678,0.8317678 0 0 0 0.1785112,0.5779139 0.19713282,0.19713282 0 0 0 0.1444784,0.04709 c 0.1284253,0 0.1872869,-0.1070211 0.2517136,-0.2341621 0.078768,-0.1553946 0.1498296,-0.3360462 0.1498296,-0.3360462 0,0 -0.088614,0.4882302 0.1521839,0.4882302 0.087543,0 0.1761566,-0.1138705 0.2157545,-0.1712339 v 0.00107 c 0,0 0.00214,-0.00321 0.00664,-0.010916 l 0.014126,-0.022896 v -0.00214 C 2.9182812,4.3253023 2.9970487,4.1861748 3.1141298,3.9552234 3.2652436,3.6574907 3.4107921,3.2852714 3.4107921,3.2852714 a 1.9024066,1.9024066 0 0 0 0.058005,0.2418676 2.2780507,2.2780507 0 0 0 0.1247867,0.2801812 c -0.035103,0.04923 -0.056936,0.076627 -0.056936,0.076627 l 0.00107,0.00107 c -0.028468,0.037244 -0.059075,0.077697 -0.093108,0.1170812 a 3.4888871,3.4888871 0 0 0 -0.2812541,0.3525245 0.09567684,0.09567684 0 0 0 0.026327,0.1284253 0.23887104,0.23887104 0 0 0 0.1466189,0.024187 0.67359065,0.67359065 0 0 0 0.2200354,-0.0503 0.73844543,0.73844543 0 0 0 0.1894273,-0.09953 0.42380347,0.42380347 0 0 0 0.1817218,-0.3732895 0.75364241,0.75364241 0 0 0 -0.068921,-0.263914 c 0.010916,-0.015411 0.021405,-0.030608 0.031678,-0.046018 A 5.0145795,5.0145795 0 0 0 4.2185828,3.107184 1.9024066,1.9024066 0 0 0 4.2765882,3.3490517 1.6202991,1.6202991 0 0 0 4.3836094,3.5898491 1.0404588,1.0404588 0 0 0 4.0631882,4.0012381 c -0.068922,0.1992733 -0.015411,0.2889569 0.085616,0.309719 A 0.30501007,0.30501007 0 0 0 4.3086991,4.2782129 0.72774333,0.72774333 0 0 0 4.511183,4.1741885 0.45505362,0.45505362 0 0 0 4.7344289,3.8041096 0.69948975,0.69948975 0 0 0 4.684129,3.5851445 1.1464098,1.1464098 0 0 1 5.2654675,3.5183633 c 0.5209785,0.061216 0.6239328,0.3863461 0.6042409,0.523333 A 0.3463202,0.3463202 0 0 1 5.7044679,4.2758585 c -0.036173,0.022903 -0.048159,0.030608 -0.044949,0.04709 0.00428,0.024187 0.021405,0.022903 0.05244,0.018622 A 0.40668009,0.40668009 0 0 0 5.9970635,3.9798382 C 6.0135448,3.6587749 5.7070364,3.3066757 5.1650816,3.3098862 Z M 1.1447279,4.6647731 C 0.97178187,4.8531302 0.73098445,4.9241921 0.62695997,4.8640464 0.51522996,4.7998336 0.55910861,4.5215789 0.77143842,4.3220916 A 2.7577191,2.7577191 0 0 1 1.1781185,4.0187939 c 0.025257,-0.015411 0.062501,-0.037243 0.1070211,-0.064213 l 0.011987,-0.00664 v 0 l 0.026327,-0.016481 A 0.74764924,0.74764924 0 0 1 1.1447279,4.6647731 Z M 2.4035099,3.8086045 C 2.343364,3.9552234 2.2175072,4.3308673 2.14088,4.3098912 2.0751692,4.2923398 2.0338591,4.0076636 2.1278235,3.7264122 A 1.3255631,1.3255631 0 0 1 2.3324478,3.3509824 C 2.4266263,3.2458876 2.5306509,3.2107847 2.5556938,3.2535931 A 1.93965,1.93965 0 0 1 2.4035099,3.8086045 Z m 1.0387464,0.4970059 c -0.025256,0.013057 -0.04923,0.021405 -0.060146,0.015411 -0.0077,-0.00428 0.010916,-0.021405 0.010916,-0.021405 0,0 0.1303517,-0.1401975 0.1817218,-0.203554 0.029537,-0.037243 0.064213,-0.080908 0.101884,-0.1303517 v 0.014126 c 0,0.167381 -0.1620299,0.2801811 -0.2341621,0.3262003 z M 4.2436302,4.1228183 C 4.2250085,4.1097618 4.2282192,4.0658831 4.2907195,3.9291102 A 0.72945566,0.72945566 0 0 1 4.4692307,3.6992289 0.30993304,0.30993304 0 0 1 4.4867825,3.8000426 0.33112321,0.33112321 0 0 1 4.2438446,4.1230322 Z"
     style="fill:#cd6799;stroke-width:1"
     id="path21330" />
  <metadata
     id="metadata22181">
    <rdf:RDF>
      <cc:Work
         rdf:about="">
        <dc:title>file_type_sass</dc:title>
      </cc:Work>
    </rdf:RDF>
  </metadata>
</svg>
