<?xml version="1.0" encoding="UTF-8" standalone="no"?>
<svg
   width="150"
   height="23.1"
   viewBox="2.047 1.988 9.35436 1.44156"
   version="1.1"
   id="svg4"
   xmlns="http://www.w3.org/2000/svg"
   xmlns:svg="http://www.w3.org/2000/svg">
  <defs
     id="defs8" />
  <path
     d="m 10.896675,2.6488259 c 0.05404,-0.057636 0.134123,-0.088194 0.212531,-0.088194 0.238767,0 0.297904,0.1620395 0.297904,0.3691067 v 0.4789146 c 0,0.012668 -0.0087,0.021553 -0.0209,0.021553 h -0.149852 c -0.01213,0 -0.02263,-0.00889 -0.02263,-0.021553 v -0.459042 c 0,-0.1242163 -0.01573,-0.2088683 -0.149851,-0.2088683 -0.168884,0 -0.168884,0.1619195 -0.168884,0.3007247 v 0.3671856 c 0,0.012668 -0.01051,0.021553 -0.02263,0.021553 H 10.72251 c -0.01225,0 -0.02263,-0.00889 -0.02263,-0.021553 V 2.6055994 c 0,-0.00901 0.01039,-0.019812 0.02263,-0.019812 h 0.149853 c 0.01212,0 0.02263,0.010807 0.02263,0.019812 z M 10.59355,2.9819105 c 0,0.253896 -0.191638,0.4482953 -0.437309,0.4482953 -0.2438703,0 -0.437309,-0.1943993 -0.437309,-0.4482953 0,-0.2520948 0.1934987,-0.4483554 0.437309,-0.4483554 0.245611,0 0.437309,0.1962606 0.437309,0.4483554 m -0.6794978,0 c 0,0.1403662 0.1080058,0.2592392 0.2421288,0.2592392 0.137664,0 0.245671,-0.118873 0.245671,-0.2592392 0,-0.1404863 -0.108007,-0.2574982 -0.245671,-0.2574982 -0.134123,0 -0.2421288,0.1170719 -0.2421288,0.2574982 M 9.2413989,2.76944 H 9.1020533 c -0.012188,0 -0.022634,-0.0054 -0.022634,-0.018071 V 2.6055994 c 0,-0.00901 0.010446,-0.019812 0.022634,-0.019812 h 0.03128 c 0.1080663,0 0.1080663,-0.08111 0.1080663,-0.1242764 V 2.369714 c 0,-0.012608 0.010506,-0.019812 0.022754,-0.019812 H 9.413825 c 0.012252,0 0.021014,0.00721 0.021014,0.019812 v 0.2161327 h 0.1829324 c 0.012189,0 0.022632,0.010806 0.022632,0.019812 v 0.1457695 c 0,0.012668 -0.010444,0.018071 -0.022632,0.018071 H 9.4348375 V 3.039545 c 0,0.068442 -0.00518,0.1818517 0.073186,0.1999228 0.043583,0.0054 0.06976,-0.0054 0.095879,-0.01627 0,0 0.00873,-0.0036 0.01387,-0.0036 0.012189,0 0.022632,0.00894 0.022632,0.019812 V 3.392445 c 0,0.00546 -0.00691,0.01627 -0.015606,0.018011 h 0.00164 c -0.036502,0.01627 -0.08543,0.019752 -0.1237961,0.019752 -0.2090485,0 -0.2614007,-0.1511728 -0.2614007,-0.3365667 z M 8.4349236,3.0502925 c 0.00876,0.1188731 0.090596,0.2016639 0.2108495,0.2016639 0.1045842,0 0.151473,-0.057576 0.2056263,-0.1476307 0.00696,-0.00901 0.01567,-0.012548 0.027857,-0.0054 l 0.1271581,0.073785 c 0.00876,0.00726 0.01579,0.01627 0.010506,0.027077 v -0.00186 c -0.076667,0.1477507 -0.2125906,0.2322826 -0.3728891,0.2322826 -0.2490329,0 -0.4024271,-0.1943994 -0.4024271,-0.442892 0,-0.2574982 0.1359235,-0.4536986 0.399005,-0.4536986 0.2630817,0 0.3884986,0.2214159 0.3884986,0.4715896 v 0.025335 c 0,0.012548 -0.010446,0.019692 -0.022634,0.019692 H 8.4349236 Z M 8.8305065,2.8811086 C 8.8060715,2.7893122 8.7397908,2.7100635 8.6405499,2.7100635 c -0.092337,0 -0.1672027,0.082791 -0.1916377,0.1710451 z m -0.7138984,0.527484 a 0.02143317,0.02143317 0 0 1 -0.020953,0.021553 h -0.149852 c -0.012128,0 -0.022694,-0.00889 -0.022694,-0.021553 V 2.0348288 c 0,-0.00901 0.010566,-0.019812 0.022694,-0.019812 h 0.149852 c 0.010506,0 0.020953,0.010806 0.020953,0.019812 z M 6.9744666,2.0077522 c 0,-0.00894 0.010446,-0.019752 0.022634,-0.019752 h 0.1515932 c 0.012188,0 0.022514,0.010807 0.022514,0.019752 v 0.6410737 c 0.064599,-0.072044 0.1481706,-0.1152708 0.2491527,-0.1152708 0.2387667,0 0.3867576,0.2088683 0.3867576,0.4429521 0,0.2413482 -0.1394057,0.4538187 -0.393842,0.4538187 -0.092277,0 -0.1812513,-0.046889 -0.2439298,-0.1135297 v 0.06484 c 0,0.012548 -0.010446,0.021553 -0.022574,0.021553 h -0.149852 c -0.012188,0 -0.022634,-0.00901 -0.022634,-0.021553 z m 0.6411337,0.9724173 c 0,-0.1440286 -0.083692,-0.2664437 -0.2317423,-0.2664437 -0.1392856,0 -0.222917,0.1296196 -0.222917,0.2664437 0,0.1404863 0.080089,0.2717869 0.222917,0.2717869 0.149852,6.01e-5 0.2317423,-0.1241562 0.2317423,-0.2717869 M 5.9657269,3.0989824 5.8263214,3.415857 c -0.00348,0.0054 -0.01567,0.014409 -0.020893,0.014409 H 5.6346236 c -0.01735,0 -0.026056,-0.014409 -0.020893,-0.030619 l 0.608054,-1.3702213 c 0.010446,-0.01627 0.03308,-0.01627 0.041786,0 0.1969208,0.4447533 0.4111925,0.9255885 0.6080534,1.3703418 0.00523,0.01627 -0.00354,0.030679 -0.020893,0.030679 H 6.6798055 c -0.00696,0 -0.01741,-0.00901 -0.020892,-0.014409 C 6.615326,3.3133141 6.5648349,3.2035666 6.5195671,3.0991025 Z M 6.2426771,2.4525654 6.0458761,2.9080051 H 6.439598 Z M 2.2419998,3.4085926 a 0.02161328,0.02161328 0 0 1 -0.021133,0.021553 H 2.069874 C 2.057567,3.4301456 2.047,3.4211356 2.047,3.4085926 V 2.0304461 c 0,-0.00901 0.010566,-0.019812 0.022874,-0.019812 h 0.1510529 c 0.010566,0 0.021133,0.010806 0.021133,0.019812 z m 0.3952227,0 a 0.02161328,0.02161328 0 0 1 -0.021133,0.021553 H 2.4650968 c -0.012308,0 -0.022814,-0.00901 -0.022814,-0.021553 V 2.0304461 c 0,-0.00901 0.010506,-0.019812 0.022814,-0.019812 h 0.1510528 c 0.010566,0 0.021133,0.010806 0.021133,0.019812 z m 0.3952227,0 a 0.02161328,0.02161328 0 0 1 -0.021132,0.021553 H 2.8602596 c -0.012308,0 -0.022814,-0.00901 -0.022814,-0.021553 V 2.0304461 c 0,-0.00901 0.010506,-0.019812 0.022814,-0.019812 h 0.1510527 c 0.010626,0 0.021132,0.010806 0.021132,0.019812 z m 0.3969639,0 a 0.02161328,0.02161328 0 0 1 -0.021072,0.021553 H 3.2572834 c -0.012308,0 -0.022874,-0.00901 -0.022874,-0.021553 V 2.0304461 c 0,-0.00901 0.010566,-0.019812 0.022874,-0.019812 h 0.1510528 c 0.010506,0 0.021072,0.010806 0.021072,0.019812 z M 4.9839439,2.0087728 c 0.012248,0 0.021073,0.010927 0.021073,0.021673 v 0.1553755 c 0,0.012668 -0.00876,0.023475 -0.021073,0.023475 H 3.6436807 c -0.00876,0 -0.019272,-0.010807 -0.019272,-0.023475 V 2.0304461 c 0,-0.010807 0.010566,-0.021673 0.019272,-0.021673 z m 0,0.4082508 c 0.012248,0 0.021073,0.010867 0.021073,0.021673 v 0.1553155 c 0,0.012608 -0.00876,0.023475 -0.021073,0.023475 H 3.6436807 c -0.00876,0 -0.019272,-0.010867 -0.019272,-0.023475 V 2.4386968 c 0,-0.010867 0.010566,-0.021673 0.019272,-0.021673 z m 0,0.4063295 c 0.012248,0 0.021073,0.010867 0.021073,0.021673 v 0.1552553 c 0,0.012788 -0.00876,0.023655 -0.021073,0.023655 H 3.6436807 c -0.00876,0 -0.019272,-0.010867 -0.019272,-0.023655 V 2.8450265 c 0,-0.010927 0.010566,-0.021673 0.019272,-0.021673 z m 0,0.4063296 c 0.012248,0 0.021073,0.010927 0.021073,0.021673 v 0.1553755 c 0,0.012668 -0.00876,0.023475 -0.021073,0.023475 H 3.6436807 c -0.00876,0 -0.019272,-0.010807 -0.019272,-0.023475 V 3.251356 c 0,-0.010807 0.010566,-0.021673 0.019272,-0.021673 z"
     id="path2"
     style="stroke-width:0.0600369" />
</svg>
