<?xml version="1.0" encoding="UTF-8" standalone="no"?>
<!-- Uploaded to: SVG Repo, www.svgrepo.com, Generator: SVG Repo Mixer Tools -->

<svg
   fill="#000000"
   width="150"
   height="150"
   viewBox="0 0 6 6"
   version="1.1"
   id="svg3465"
   sodipodi:docname="inkscape-svgrepo-com.svg"
   inkscape:export-filename="inkscape_150_light.svg"
   inkscape:export-xdpi="96"
   inkscape:export-ydpi="96"
   xmlns:inkscape="http://www.inkscape.org/namespaces/inkscape"
   xmlns:sodipodi="http://sodipodi.sourceforge.net/DTD/sodipodi-0.dtd"
   xmlns="http://www.w3.org/2000/svg"
   xmlns:svg="http://www.w3.org/2000/svg"
   xmlns:rdf="http://www.w3.org/1999/02/22-rdf-syntax-ns#"
   xmlns:cc="http://creativecommons.org/ns#"
   xmlns:dc="http://purl.org/dc/elements/1.1/">
  <defs
     id="defs3469" />
  <sodipodi:namedview
     id="namedview3467"
     pagecolor="#505050"
     bordercolor="#eeeeee"
     borderopacity="1"
     inkscape:showpageshadow="0"
     inkscape:pageopacity="0"
     inkscape:pagecheckerboard="0"
     inkscape:deskcolor="#505050"
     showgrid="false" />
  <title
     id="title3461">inkscape</title>
  <g
     id="g3827"
     transform="matrix(0.19936952,0,0,0.19936952,-0.19077901,-0.17991206)">
    <path
       d="m 25.431,25.209 c -1.263,1.135 0.142,2.284 1.388,1.552 0.277,-0.281 -0.008,-1.27 -1.387,-1.552 z M 7.296,27.041 c 0.98,0.849 2.496,-0.211 2.949,-1.395 -0.95,-1.262 -4.507,0.046 -2.949,1.395 z m 18.655,-2.987 c 0,0.562 4.141,0.931 4.141,-0.132 -0.397,-0.733 -1.16,-1.222 -2.038,-1.222 -0.929,0 -1.731,0.549 -2.097,1.34 z M 13.233,2.216 2.161,13.545 c -3.74,4.632 2.547,4.094 5.241,5.427 0.967,0.988 -3.705,1.718 -2.738,2.707 0.966,0.988 5.846,1.904 6.814,2.892 0.966,0.988 -1.979,2.037 -1.012,3.024 0.966,0.99 3.203,0.052 3.621,2.334 0.297,1.63 4.029,0.7 5.853,-0.635 0.967,-0.988 -1.849,-0.896 -0.882,-1.884 2.403,-2.458 4.642,-0.892 5.465,-3.357 0.406,-1.217 -3.539,-1.876 -2.571,-2.864 2.782,-1.625 12.395,-2.682 7.833,-7.243 L 18.311,2.216 C 17.652,1.587 16.757,1.2 15.772,1.2 c -0.985,0 -1.88,0.387 -2.54,1.017 z m 4.408,0.796 4.38,4.449 c 0.207,0.229 0.333,0.533 0.333,0.868 0,0.226 -0.058,0.438 -0.159,0.623 L 22.198,8.945 20.024,7.206 19.597,9.782 17.779,8.823 14.87,10.66 13.907,6.786 12.344,9.49 H 9.953 C 8.978,9.49 8.865,8.253 9.749,7.368 11.295,5.7 13.069,3.999 14.034,3.013 14.5,2.56 15.136,2.281 15.838,2.281 c 0.702,0 1.338,0.279 1.804,0.733 L 17.641,3.013 Z m -7.057,16.576 c 0.296,0.184 4.771,1.093 5.865,1.275 0.379,0.08 0.11,0.47 -0.412,0.734 -1.178,0.314 -6.894,-2.008 -5.452,-2.008 z"
       id="path3463" />
    <path
       style="fill:#000000;stroke-width:1.007"
       d="M 14.83741,10.362153 C 14.803161,10.232589 14.588036,9.3764364 14.359356,8.4595912 14.130676,7.542746 13.924967,6.7926 13.902226,6.7926 c -0.02274,0 -0.389958,0.6044168 -0.816038,1.3431488 L 12.311498,9.4788972 10.989734,9.459994 C 9.761646,9.4424304 9.6555132,9.4318356 9.4922128,9.3105036 9.0937012,9.0144104 9.0929804,8.3522688 9.4905128,7.748886 9.807654,7.2675232 14.21377,2.8550726 14.571987,2.6601065 c 0.760928,-0.4141491 1.563502,-0.4476221 2.324315,-0.096941 0.401929,0.1852612 0.588352,0.3577416 2.795235,2.58619 1.384533,1.398062 2.417122,2.4906732 2.491343,2.6361588 0.162108,0.3177564 0.164074,1.06356 0.0028,1.06356 -0.02591,0 -0.51918,-0.3774568 -1.096166,-0.8387928 -0.576985,-0.4613364 -1.058582,-0.8292744 -1.070217,-0.8176404 -0.01163,0.011634 -0.104202,0.5222944 -0.205707,1.1348008 -0.101506,0.6125064 -0.199041,1.1773172 -0.216746,1.2551348 -0.03107,0.1365712 -0.06331,0.125136 -0.92815,-0.3291756 L 17.772738,8.78274 16.411198,9.6446592 c -0.748846,0.4740558 -1.395284,0.8824268 -1.436528,0.9074918 -0.05026,0.03054 -0.09553,-0.03212 -0.13726,-0.189998 z"
       id="path3740" />
    <path
       style="fill:#000000;stroke-width:1.007"
       d="M 15.656873,21.621086 C 15.041392,21.594063 13.855021,21.278742 12.583334,20.804181 11.771078,20.501069 11.036016,20.17058 10.65216,19.935913 10.4722,19.825896 10.368371,19.73478 10.357612,19.677428 c -0.0094,-0.0503 0.05709,-0.08113 0.176696,-0.08187 0.057,-3.6e-4 0.06304,7.08e-4 0.1019,0.01786 0.156898,0.06924 0.845942,0.239393 1.899434,0.469046 1.252654,0.27307 2.932113,0.610742 3.781244,0.760258 0.08732,0.01538 0.171376,0.03275 0.186781,0.0386 0.0452,0.01718 0.08449,0.04639 0.101656,0.07559 0.01353,0.02301 0.01546,0.03187 0.01533,0.07039 -1.6e-4,0.05196 -0.0104,0.07943 -0.05647,0.151474 -0.0576,0.0901 -0.207098,0.224082 -0.350811,0.314408 -0.112225,0.07053 -0.178361,0.102982 -0.228772,0.112241 -0.08726,0.01603 -0.198404,0.02134 -0.327734,0.01566 z"
       id="path3744" />
  </g>
  <metadata
     id="metadata3746">
    <rdf:RDF>
      <cc:Work
         rdf:about="">
        <dc:title>inkscape</dc:title>
      </cc:Work>
    </rdf:RDF>
  </metadata>
  <path
     style="fill:#ffffff;stroke-width:0.0078442"
     d="M 2.8444887,5.9511004 C 2.7693692,5.9407816 2.7235345,5.9225704 2.6830972,5.886976 2.6423595,5.8511172 2.6318508,5.8308584 2.6139505,5.7536736 2.5966037,5.678876 2.5659686,5.6188908 2.5205645,5.5708188 2.4515113,5.497708 2.3990055,5.4754052 2.1966894,5.4332464 2.0004708,5.3923588 1.9728873,5.3822668 1.9154056,5.3303356 1.8615413,5.2816724 1.8496658,5.239676 1.873583,5.182434 1.8881334,5.14761 1.9230558,5.1040744 2.0102124,5.0121072 2.09121,4.9266384 2.123171,4.8815272 2.1355689,4.8351724 2.1608587,4.7406172 2.079406,4.6688312 1.8366521,4.5717316 1.7926083,4.5541144 1.5970789,4.4860672 1.4021422,4.4205156 0.91631088,4.2571444 0.78361728,4.1980016 0.7300428,4.120954 0.70686636,4.0876232 0.71296756,4.0667664 0.75891156,4.022266 0.79467708,3.9876244 0.83406176,3.9650979 1.015152,3.8757062 1.2901906,3.7399389 1.3402074,3.6971164 1.3064436,3.6263128 1.2847145,3.5807463 1.1345716,3.5282272 0.80623176,3.4513413 0.45319104,3.3686714 0.34315984,3.3351279 0.22200584,3.2732374 0.13015679,3.2263171 0.05669933,3.155431 0.03239375,3.0902628 0.01358653,3.0398367 0.01026457,2.9663902 0.02410719,2.9070522 0.03764498,2.8490208 0.11935124,2.6901404 0.17619451,2.6113136 0.21503173,2.5574564 0.50923624,2.2513164 1.3327787,1.4078082 1.9402523,0.78560716 2.4653488,0.25353034 2.4996598,0.22541524 2.7143031,0.04953212 3.0180142,0.01417602 3.2677702,0.13599673 c 0.038559,0.0188075 0.091909,0.0505004 0.1185565,0.0704287 0.043214,0.0323177 2.3262113,2.35781197 2.4252929,2.47043837 0.1106728,0.1258019 0.1708536,0.2532072 0.1708536,0.3617042 0,0.1755158 -0.132574,0.3270056 -0.4106104,0.4691975 C 5.396538,3.597429 5.2546712,3.6517908 4.8101264,3.7996539 4.2498936,3.985997 4.1518988,4.0321016 4.1518988,4.109338 c 0,0.054535 0.056062,0.1014372 0.2514544,0.2103704 C 4.593652,4.425802 4.6309088,4.4523452 4.675144,4.51334 4.7069056,4.557136 4.7050024,4.596492 4.6672504,4.6765544 4.6286412,4.7584352 4.58567,4.8117552 4.526386,4.8513436 4.4635952,4.8932736 4.4188164,4.9092532 4.2375372,4.9544216 3.9489389,5.02633 3.8255684,5.0844512 3.6689387,5.2222936 3.5909214,5.2909532 3.5676728,5.322902 3.5676728,5.361456 c 0,0.040804 0.023029,0.061514 0.1310869,0.1178852 0.096451,0.050316 0.1207794,0.071686 0.1207794,0.1060932 0,0.032484 -0.021998,0.059686 -0.081703,0.1010312 C 3.4948381,5.854738 3.0665628,5.9816052 2.8444887,5.9511004 Z M 3.0281518,4.1163996 c 0.055856,-0.027835 0.097144,-0.074906 0.094016,-0.107188 -0.00284,-0.029355 0.033296,-0.019682 -0.3685167,-0.098636 C 2.4454609,3.850018 2.0944993,3.773343 1.9864608,3.7429667 1.9062944,3.720427 1.878678,3.7186339 1.8721877,3.7355473 c -0.00868,0.022609 0.03182,0.051711 0.1570236,0.1128471 0.3043961,0.1486334 0.7354673,0.2837992 0.9157052,0.2871264 0.03195,5.88e-4 0.053713,-0.00441 0.083235,-0.019121 z M 3.0693869,1.7643622 C 3.225307,1.6658228 3.3550102,1.585867 3.3576162,1.5866825 c 0.00261,8.156e-4 0.084748,0.043828 0.182538,0.095583 0.09779,0.051755 0.1785489,0.093152 0.1794642,0.091993 9.152e-4,-0.00116 0.020186,-0.1165694 0.042823,-0.256468 l 0.041159,-0.254361 0.213319,0.1709449 c 0.1173256,0.09402 0.2166788,0.1688685 0.2207852,0.1663307 0.016006,-0.00989 0.032972,-0.092 0.029066,-0.1406621 -0.00814,-0.1014114 -8e-5,-0.091746 -0.501143,-0.5996771 C 3.5143278,0.60563008 3.2924946,0.38538721 3.2726651,0.37093758 3.0805549,0.230948 2.8209139,0.24058986 2.631508,0.39474718 2.572316,0.44292352 2.0253511,0.9933364 1.8286291,1.2026874 1.6857777,1.3547093 1.6517672,1.406987 1.6343129,1.5013717 c -0.016671,0.090149 0.016293,0.1679353 0.083825,0.1978083 0.030924,0.013679 0.05256,0.014608 0.2959155,0.012706 l 0.262553,-0.00205 0.1489412,-0.2587576 c 0.081918,-0.1423168 0.1507313,-0.2588698 0.1529191,-0.2590068 0.00219,-1.36e-4 0.045633,0.1671315 0.096544,0.3717079 0.050911,0.2045765 0.094136,0.3747712 0.096054,0.3782107 0.00192,0.00344 0.00604,0.00519 0.00916,0.00389 0.00312,-0.0013 0.1332422,-0.082982 0.2891625,-0.1815213 z"
     id="path4237" />
  <path
     style="fill:#ffffff;stroke-width:0.0078442"
     d="M 5.276354,4.7125644 C 5.1484796,4.6990936 5.023824,4.6644116 4.9970848,4.6348652 4.983788,4.6201724 4.984244,4.618002 5.0096572,4.5750716 5.0671776,4.4779016 5.1710896,4.3989112 5.2852968,4.36554 c 0.06196,-0.018105 0.1717304,-0.018105 0.2336904,0 0.1047572,0.03061 0.2124108,0.107928 0.2635996,0.18932 0.025756,0.040952 0.02598,0.056473 0.0012,0.083209 -0.061765,0.066646 -0.2790872,0.09855 -0.5074348,0.074496 z"
     id="path4239" />
  <path
     style="fill:#ffffff;stroke-width:0.0078442"
     d="m 4.9024024,5.1799292 c -0.050004,-0.019808 -0.099685,-0.071832 -0.111894,-0.1171724 -0.015273,-0.05672 0.00568,-0.1190608 0.060349,-0.1795752 0.025921,-0.028691 0.030769,-0.030956 0.056138,-0.02622 0.044652,0.00834 0.1387608,0.055237 0.1798256,0.089618 0.042429,0.035524 0.085526,0.1117524 0.085526,0.1512756 0,0.034567 -0.016719,0.054098 -0.063936,0.074685 -0.058759,0.02562 -0.1515788,0.028949 -0.2060088,0.00739 z"
     id="path4241" />
  <path
     style="fill:#ffffff;stroke-width:0.0078442"
     d="M 1.3444263,5.2540208 C 1.2888209,5.23282 1.2325657,5.1825448 1.2057401,5.1300772 1.132651,4.9871236 1.3582081,4.8288332 1.6202532,4.839182 c 0.06824,0.0027 0.089712,0.0068 0.1295975,0.024757 0.026293,0.01184 0.059001,0.033078 0.072685,0.047196 l 0.024879,0.025669 -0.017159,0.034032 C 1.7764567,5.0775388 1.680053,5.1752804 1.5771473,5.2274584 c -0.060858,0.030858 -0.071738,0.033765 -0.1342472,0.035876 -0.046407,0.00157 -0.077699,-0.00139 -0.098474,-0.00931 z"
     id="path4243" />
</svg>
